<svg width="251" height="72" viewBox="0 0 251 72" fill="none" xmlns="http://www.w3.org/2000/svg">
<path fill-rule="evenodd" clip-rule="evenodd" d="M165.25 48.5076H171.73L171.723 14.2368H165.25V48.5076ZM99.1869 45.7006C101.412 47.8733 104.295 48.9597 107.834 48.9597C109.73 48.9898 111.609 48.6015 113.337 47.8226C114.907 47.1223 116.262 46.0172 117.264 44.6206L114.096 41.0712C112.697 42.8712 110.755 43.7713 108.27 43.7713C106.663 43.7792 105.336 43.3034 104.287 42.3439C103.239 41.3844 102.61 40.1157 102.401 38.5376H117.778V35.9042C117.772 32.0804 116.82 29.1274 114.924 27.0451C113.027 24.9627 110.427 23.9215 107.125 23.9215C105.06 23.8852 103.024 24.4221 101.245 25.4726C99.513 26.523 98.1281 28.0592 97.2624 29.8902C96.2987 31.9217 95.8175 34.1484 95.8564 36.3966V37.0199C95.8517 40.6343 96.9618 43.5278 99.1869 45.7006ZM105.4 29.431C105.938 29.2069 106.517 29.1014 107.099 29.1219C108.468 29.1108 109.524 29.5017 110.268 30.2946C111.012 31.0876 111.398 32.1978 111.427 33.6251V34.1414H102.458C102.683 32.5269 103.192 31.2867 103.985 30.4207C104.38 29.9928 104.863 29.6552 105.4 29.431ZM132.853 24.3666L128.79 31.5747L124.808 24.3666H117.909L124.746 36.1898L117.583 48.5079H124.525L128.807 40.9215L133.115 48.5079H140.033L132.88 36.1946L139.752 24.3666H132.853ZM162.757 36.663C162.757 40.3836 161.912 43.3628 160.223 45.6006C158.534 47.8384 156.255 48.9581 153.384 48.9597C150.946 48.9597 148.975 48.1112 147.47 46.4142V57.7855H141.023V24.3663H147.001L147.225 26.7453C148.789 24.8707 150.827 23.9333 153.339 23.9333C156.314 23.9333 158.628 25.034 160.28 27.2353C161.933 29.4366 162.758 32.4713 162.757 36.3395V36.663ZM156.308 36.1872C156.308 33.9415 155.911 32.2081 155.118 30.9869C154.325 29.7657 153.169 29.1559 151.65 29.1575C149.624 29.1575 148.233 29.9314 147.475 31.4793V41.3709C148.268 42.9648 149.674 43.7577 151.692 43.7498C154.769 43.7498 156.308 41.2313 156.308 36.1943V36.1872ZM174.209 36.2183C174.168 34.0047 174.641 31.8118 175.591 29.8119C176.458 27.9984 177.845 26.4838 179.576 25.4608C181.308 24.4363 183.319 23.9232 185.611 23.9216C188.87 23.9216 191.53 24.9184 193.59 26.9119C195.65 28.9055 196.799 31.6127 197.037 35.0336L197.082 36.6846C197.082 40.3909 196.051 43.363 193.99 45.6008C191.928 47.8386 189.153 48.9582 185.663 48.9598C182.182 48.9598 179.407 47.8441 177.337 45.6127C175.268 43.3812 174.23 40.3457 174.226 36.5062L174.209 36.2183ZM180.658 36.675C180.658 38.9715 181.09 40.7256 181.952 41.9372C182.815 43.1489 184.05 43.7563 185.656 43.7595C187.217 43.7595 188.437 43.16 189.315 41.961C190.194 40.762 190.633 38.8438 190.633 36.2064C190.633 33.9559 190.194 32.2114 189.315 30.9728C188.437 29.7341 187.202 29.1164 185.611 29.1196C184.035 29.1196 182.815 29.7341 181.952 30.9632C181.09 32.1924 180.658 34.0963 180.658 36.675ZM210.473 30.2494C211.249 30.2574 212.024 30.317 212.792 30.4278L212.883 24.2021C212.232 24.0053 211.555 23.9074 210.875 23.9119C208.583 23.9119 206.79 25.0221 205.496 27.2424L205.318 24.3615H199.225V48.5076H205.675V32.7258C206.433 31.0748 208.032 30.2494 210.473 30.2494ZM224.756 48.9597C221.216 48.9597 218.334 47.8733 216.109 45.7006C213.883 43.5278 212.773 40.6343 212.778 37.0199V36.3966C212.739 34.1484 213.22 31.9217 214.184 29.8902C215.05 28.0592 216.435 26.523 218.166 25.4726C219.946 24.4221 221.981 23.8852 224.047 23.9215C227.349 23.9215 229.948 24.9627 231.845 27.0451C233.742 29.1274 234.693 32.0804 234.7 35.9042V38.5376H219.325C219.534 40.1157 220.163 41.3844 221.211 42.3439C222.26 43.3034 223.587 43.7792 225.194 43.7713C227.679 43.7713 229.621 42.8712 231.02 41.0712L234.188 44.6206C233.186 46.0172 231.831 47.1223 230.261 47.8226C228.532 48.6019 226.652 48.9901 224.756 48.9597ZM224.021 29.1219C223.44 29.1037 222.862 29.2109 222.326 29.4363C221.79 29.6617 221.31 29.9999 220.916 30.4279C220.123 31.2938 219.613 32.534 219.387 34.1485H228.358V33.6323C228.329 32.2049 227.943 31.0948 227.199 30.3018C226.455 29.5088 225.396 29.1155 224.021 29.1219ZM247.766 30.2494C248.543 30.2574 249.318 30.317 250.087 30.4278L250.176 24.2021C249.525 24.0051 248.848 23.9073 248.168 23.9119C245.876 23.9119 244.083 25.0221 242.789 27.2424L242.61 24.3615H236.518V48.5076H242.967V32.7258C243.725 31.0749 245.325 30.2494 247.766 30.2494Z" fill="white"/>
<path opacity="0.3" d="M62.3556 18L46.7642 27L31.1828 35.9999L15.5914 44.9999L0 53.9999V18L31.1828 0L62.3556 18Z" fill="#42D3FF"/>
<path opacity="0.6" d="M62.3556 54L31.1828 71.9999L0 54L15.5914 45L31.1828 36L46.7642 45L62.3556 54Z" fill="#42D3FF"/>
<path d="M62.3557 18V53.9999L46.7643 44.9999L31.1829 36L46.7643 27L62.3557 18Z" fill="#42D3FF"/>
</svg>
